# xmcd
#
# Track frame offsets: 
#        150
#        18615
#        35201
#        49385
#        70215
#        86570
#        97839
#        120800
#        138060
#        153817
#        177964
#
# Disc length: 2559 seconds
#
# Revision: 1
# Processed by: cddbd v1.5.2PL0 Copyright (c) Steve Scherf et al.
# Submitted via: ExactAudioCopy v1.0b1
#
DISCID=8509fd0b
DTITLE=Chris LeDoux - Stampede
DYEAR=1995
DGENRE=Country
TTITLE0=Gravitational Pull
TTITLE1=Five Dollar Fine
TTITLE2=Now That's All Right With Me
TTITLE3=Take Me To The Rodeo
TTITLE4=Fathers And Sons
TTITLE5=I'll Get The Job Done
TTITLE6=Stampede
TTITLE7=When I Say Forever
TTITLE8=Calico Moon
TTITLE9=That's What Loving You Means To Me
TTITLE10=Rainbow Rider (Bonus Track)
EXTD=
EXTT0=
EXTT1=
EXTT2=
EXTT3=
EXTT4=
EXTT5=
EXTT6=
EXTT7=
EXTT8=
EXTT9=
EXTT10=
PLAYORDER=
